<?xml version="1.0" encoding="UTF-8"?>
<!DOCTYPE svg PUBLIC "-//W3C//DTD SVG 1.1//EN" "http://www.w3.org/Graphics/SVG/1.1/DTD/svg11.dtd">
<svg xmlns="http://www.w3.org/2000/svg" version="1.1" width="128px" height="128px" style="shape-rendering:geometricPrecision; text-rendering:geometricPrecision; image-rendering:optimizeQuality; fill-rule:evenodd; clip-rule:evenodd" xmlns:xlink="http://www.w3.org/1999/xlink">
<g><path style="opacity:0.674" fill="#808080" d="M 55.5,-0.5 C 57.5,-0.5 59.5,-0.5 61.5,-0.5C 61.0296,0.693482 60.0296,1.36015 58.5,1.5C 56.9704,1.36015 55.9704,0.693482 55.5,-0.5 Z"/></g>
<g><path style="opacity:0.674" fill="#818181" d="M 66.5,-0.5 C 68.5,-0.5 70.5,-0.5 72.5,-0.5C 72.6495,0.551975 72.4828,1.55198 72,2.5C 69.6742,2.11996 67.8409,1.11996 66.5,-0.5 Z"/></g>
<g><path style="opacity:0.951" fill="#0297ff" d="M 109.5,-0.5 C 111.5,-0.5 113.5,-0.5 115.5,-0.5C 121.5,1.5 125.5,5.5 127.5,11.5C 127.5,13.5 127.5,15.5 127.5,17.5C 122.353,29.3973 114.02,32.2306 102.5,26C 94.1494,14.2428 96.4828,5.40943 109.5,-0.5 Z"/></g>
<g><path style="opacity:0.537" fill="#727272" d="M 47.5,0.5 C 48.552,0.350549 49.552,0.517215 50.5,1C 51.8333,1.66667 51.8333,2.33333 50.5,3C 48.7818,3.34598 47.1151,3.84598 45.5,4.5C 44.6143,3.67504 44.281,2.67504 44.5,1.5C 45.791,1.73731 46.791,1.40397 47.5,0.5 Z"/></g>
<g><path style="opacity:0.572" fill="#838383" d="M 77.5,0.5 C 79.4352,1.14952 81.4352,1.48285 83.5,1.5C 83.5,2.5 83.5,3.5 83.5,4.5C 81.5,4.16667 79.5,3.83333 77.5,3.5C 77.5,2.5 77.5,1.5 77.5,0.5 Z"/></g>
<g><path style="opacity:0.472" fill="#808080" d="M 38.5,3.5 C 39.4972,3.47008 40.1639,3.97008 40.5,5C 39.2139,6.64863 37.5473,7.8153 35.5,8.5C 35.1667,8 34.8333,7.5 34.5,7C 35.6856,5.58786 37.019,4.4212 38.5,3.5 Z"/></g>
<g><path style="opacity:0.576" fill="#727272" d="M 87.5,4.5 C 90.0163,4.75526 92.3496,5.58859 94.5,7C 91.1902,9.01479 88.8569,8.18146 87.5,4.5 Z"/></g>
<g><path style="opacity:0.531" fill="#828282" d="M 28.5,8.5 C 30.2252,8.84254 30.7252,9.84254 30,11.5C 28.4878,12.2567 27.1545,13.2567 26,14.5C 25.3076,13.9747 24.8076,13.3081 24.5,12.5C 25.8665,11.16 27.1999,9.82669 28.5,8.5 Z"/></g>
<g><path style="opacity:0.985" fill="#0696ff" d="M 53.5,14.5 C 83.7756,11.7 103.276,24.7 112,53.5C 115.284,83.7961 102.451,103.296 73.5,112C 43.2039,115.284 23.7039,102.451 15,73.5C 11.835,43.1188 24.6683,23.4521 53.5,14.5 Z"/></g>
<g><path style="opacity:0.475" fill="#818181" d="M 19.5,15.5 C 20.7562,15.4614 21.7562,15.9614 22.5,17C 16.9177,22.9013 15.9177,22.4013 19.5,15.5 Z"/></g>
<g><path style="opacity:0.5" fill="#797979" d="M 12.5,23.5 C 13.4972,23.4701 14.1639,23.9701 14.5,25C 13.7046,26.7946 12.5379,28.2946 11,29.5C 10.5,29.1667 10,28.8333 9.5,28.5C 10.2599,26.6396 11.2599,24.973 12.5,23.5 Z"/></g>
<g><path style="opacity:1" fill="#fbfdff" d="M 78.5,29.5 C 96.5103,29.3298 101.677,37.3298 94,53.5C 84.9383,59.8733 77.2716,58.5399 71,49.5C 67.6621,40.5271 70.1621,33.8605 78.5,29.5 Z"/></g>
<g><path style="opacity:0.505" fill="#717171" d="M 6.5,32.5 C 9.03009,34.9967 8.69676,37.33 5.5,39.5C 4.72085,37.1152 5.05418,34.7819 6.5,32.5 Z"/></g>
<g><path style="opacity:0.493" fill="#797979" d="M 120.5,33.5 C 121.481,35.396 122.481,37.396 123.5,39.5C 123,39.8333 122.5,40.1667 122,40.5C 118.844,38.3372 118.344,36.0039 120.5,33.5 Z"/></g>
<g><path style="opacity:1" fill="#f9fcff" d="M 38.5,41.5 C 43.3514,40.7841 47.5181,42.1175 51,45.5C 51.4828,44.552 51.6495,43.552 51.5,42.5C 54.1667,42.5 56.8333,42.5 59.5,42.5C 59.6665,54.5046 59.4999,66.5046 59,78.5C 57.8333,83.6667 54.6667,86.8333 49.5,88C 38.0274,90.9421 31.0274,86.7754 28.5,75.5C 31.1667,75.5 33.8333,75.5 36.5,75.5C 36.9652,79.6294 39.2985,81.6294 43.5,81.5C 50.1183,80.7065 52.6183,77.0398 51,70.5C 45.928,75.1273 40.428,75.6273 34.5,72C 32.9512,70.786 31.7845,69.286 31,67.5C 28.4546,59.7769 29.1212,52.4436 33,45.5C 35.0153,44.3034 36.8487,42.9701 38.5,41.5 Z"/></g>
<g><path style="opacity:0.506" fill="#818181" d="M 1.5,43.5 C 2.5,43.5 3.5,43.5 4.5,43.5C 4.16667,45.5 3.83333,47.5 3.5,49.5C 2.32496,49.719 1.32496,49.3857 0.5,48.5C 1.30937,46.9291 1.64271,45.2624 1.5,43.5 Z"/></g>
<g><path style="opacity:0.505" fill="#828282" d="M 122.5,44.5 C 123.5,44.5 124.5,44.5 125.5,44.5C 125.833,46.5 126.167,48.5 126.5,50.5C 125.5,50.5 124.5,50.5 123.5,50.5C 123.483,48.4352 123.15,46.4352 122.5,44.5 Z"/></g>
<g><path style="opacity:1" fill="#1899ff" d="M 41.5,48.5 C 45.8884,47.9433 49.0551,49.6099 51,53.5C 51.6667,56.8333 51.6667,60.1667 51,63.5C 48.7937,67.1252 45.627,68.2919 41.5,67C 36.2019,60.8036 36.2019,54.637 41.5,48.5 Z"/></g>
<g><path style="opacity:0.622" fill="#7f807f" d="M -0.5,54.5 C 0.551975,54.3505 1.55198,54.5172 2.5,55C 2.11996,57.3258 1.11996,59.1591 -0.5,60.5C -0.5,58.5 -0.5,56.5 -0.5,54.5 Z"/></g>
<g><path style="opacity:0.676" fill="#808080" d="M 127.5,55.5 C 127.5,57.5 127.5,59.5 127.5,61.5C 126.307,61.0296 125.64,60.0296 125.5,58.5C 125.64,56.9704 126.307,55.9704 127.5,55.5 Z"/></g>
<g><path style="opacity:0.673" fill="#808080" d="M -0.5,65.5 C 0.693482,65.9704 1.36015,66.9704 1.5,68.5C 1.36015,70.0296 0.693482,71.0296 -0.5,71.5C -0.5,69.5 -0.5,67.5 -0.5,65.5 Z"/></g>
<g><path style="opacity:0.672" fill="#808080" d="M 127.5,66.5 C 127.5,68.5 127.5,70.5 127.5,72.5C 126.448,72.6495 125.448,72.4828 124.5,72C 124.88,69.6742 125.88,67.8409 127.5,66.5 Z"/></g>
<g><path style="opacity:0.567" fill="#7a7a7a" d="M 1.5,75.5 C 3.08627,77.0808 4.08627,79.0808 4.5,81.5C 3.67504,82.3857 2.67504,82.719 1.5,82.5C 0.561529,80.0897 0.561529,77.7564 1.5,75.5 Z"/></g>
<g><path style="opacity:0.477" fill="#808080" d="M 123.5,77.5 C 124.675,77.281 125.675,77.6143 126.5,78.5C 125.691,80.0709 125.357,81.7376 125.5,83.5C 124.5,83.5 123.5,83.5 122.5,83.5C 122.833,81.5 123.167,79.5 123.5,77.5 Z"/></g>
<g><path style="opacity:0.496" fill="#818181" d="M 3.5,86.5 C 6.24649,86.9276 7.91315,88.5943 8.5,91.5C 7.5,92.8333 6.5,92.8333 5.5,91.5C 4.54355,89.9246 3.87688,88.258 3.5,86.5 Z"/></g>
<g><path style="opacity:0.54" fill="#828282" d="M 120.5,87.5 C 121.497,87.4701 122.164,87.9701 122.5,89C 122.112,90.9514 121.112,92.4514 119.5,93.5C 118.531,91.3835 118.864,89.3835 120.5,87.5 Z"/></g>
<g><path style="opacity:0.499" fill="#838383" d="M 8.5,96.5 C 9.55198,96.3505 10.552,96.5172 11.5,97C 12.2567,98.5122 13.2567,99.8455 14.5,101C 13.7248,102.23 12.7248,102.563 11.5,102C 10.2423,100.259 9.24234,98.4258 8.5,96.5 Z"/></g>
<g><path style="opacity:0.53" fill="#7a7a7a" d="M 114.5,97.5 C 115.675,97.281 116.675,97.6143 117.5,98.5C 116.876,100.754 115.543,102.421 113.5,103.5C 113.167,103 112.833,102.5 112.5,102C 113.414,100.594 114.08,99.0936 114.5,97.5 Z"/></g>
<g><path style="opacity:0.592" fill="#828282" d="M 16.5,104.5 C 18.2959,105.793 19.9625,107.293 21.5,109C 19.2733,110.835 17.4399,110.335 16,107.5C 15.5304,106.423 15.6971,105.423 16.5,104.5 Z"/></g>
<g><path style="opacity:0.524" fill="#7a7a7a" d="M 108.5,105.5 C 109.497,105.47 110.164,105.97 110.5,107C 109.379,110.555 107.379,111.555 104.5,110C 106.041,108.629 107.375,107.129 108.5,105.5 Z"/></g>
<g><path style="opacity:0.499" fill="#797979" d="M 23.5,112.5 C 25.4835,112.383 27.1502,113.05 28.5,114.5C 29.8333,115.5 29.8333,116.5 28.5,117.5C 25.7877,116.788 24.1211,115.121 23.5,112.5 Z"/></g>
<g><path style="opacity:0.474" fill="#828282" d="M 100.5,112.5 C 101.478,112.811 102.145,113.478 102.5,114.5C 101.055,116.063 99.3885,117.396 97.5,118.5C 96.4173,117.635 96.2506,116.635 97,115.5C 98.5185,114.837 99.6851,113.837 100.5,112.5 Z"/></g>
<g><path style="opacity:0.538" fill="#7a7a7a" d="M 33.5,118.5 C 36.0606,118.447 38.0606,119.447 39.5,121.5C 37.0485,122.314 34.7151,121.814 32.5,120C 33.056,119.617 33.3893,119.117 33.5,118.5 Z"/></g>
<g><path style="opacity:0.499" fill="#818181" d="M 90.5,118.5 C 91.4972,118.47 92.1639,118.97 92.5,120C 91.2139,121.649 89.5473,122.815 87.5,123.5C 87.1667,123 86.8333,122.5 86.5,122C 87.6856,120.588 89.019,119.421 90.5,118.5 Z"/></g>
<g><path style="opacity:0.5" fill="#808080" d="M 43.5,122.5 C 45.5,122.833 47.5,123.167 49.5,123.5C 49.719,124.675 49.3857,125.675 48.5,126.5C 46.9291,125.691 45.2624,125.357 43.5,125.5C 43.5,124.5 43.5,123.5 43.5,122.5 Z"/></g>
<g><path style="opacity:0.536" fill="#7b7b7b" d="M 80.5,122.5 C 82.0481,122.821 82.7148,123.821 82.5,125.5C 80.9397,125.519 79.4397,125.852 78,126.5C 76.9412,126.37 76.1079,125.87 75.5,125C 77.1749,124.015 78.8415,123.181 80.5,122.5 Z"/></g>
<g><path style="opacity:0.623" fill="#7f807f" d="M 60.5,127.5 C 58.5,127.5 56.5,127.5 54.5,127.5C 54.3505,126.448 54.5172,125.448 55,124.5C 57.3258,124.88 59.1591,125.88 60.5,127.5 Z"/></g>
<g><path style="opacity:0.675" fill="#808080" d="M 71.5,127.5 C 69.5,127.5 67.5,127.5 65.5,127.5C 65.9704,126.307 66.9704,125.64 68.5,125.5C 70.0296,125.64 71.0296,126.307 71.5,127.5 Z"/></g>
</svg>
